<?xml version="1.0" standalone="no"?>
<!DOCTYPE svg PUBLIC "-//W3C//DTD SVG 20010904//EN"
 "http://www.w3.org/TR/2001/REC-SVG-20010904/DTD/svg10.dtd">
<svg version="1.0" xmlns="http://www.w3.org/2000/svg"
 width="800.000000pt" height="800.000000pt" viewBox="0 0 800.000000 800.000000"
 preserveAspectRatio="xMidYMid meet">
<metadata>
Created by potrace 1.11, written by Peter Selinger 2001-2013
</metadata>
<g transform="translate(0.000000,800.000000) scale(0.100000,-0.100000)"
fill="#000000" stroke="none">
<path d="M513 7990 c-100 -20 -241 -93 -314 -163 -73 -70 -133 -167 -176 -282
-17 -48 -18 -181 -20 -3515 -2 -3691 -4 -3525 44 -3635 20 -47 92 -160 125
-195 42 -45 130 -110 178 -131 14 -6 39 -17 56 -25 95 -45 -57 -43 3619 -41
l3470 2 72 27 c71 26 182 93 234 140 83 77 152 198 181 318 17 71 18 239 17
3510 -1 3655 1 3496 -46 3605 -20 48 -92 160 -125 195 -66 70 -159 130 -263
169 l-70 26 -3470 1 c-1908 1 -3489 -2 -3512 -6z m6162 -1645 c117 -31 216
-138 243 -260 5 -22 8 -947 8 -2060 l-1 -2020 -33 -66 c-37 -77 -91 -130 -171
-168 l-56 -26 -555 0 -555 0 -60 28 c-77 36 -147 110 -176 185 l-22 57 -2
2010 c-1 2082 -2 2055 39 2147 34 79 143 160 237 176 58 10 1066 8 1104 -3z
m-2087 -1578 c114 -43 199 -144 220 -258 4 -24 7 -595 7 -1269 l-2 -1225 -22
-56 c-31 -80 -89 -142 -169 -181 l-67 -33 -560 0 -560 0 -63 34 c-77 42 -134
104 -163 180 l-22 56 -2 1225 c0 674 3 1245 7 1269 23 127 123 231 255 266 27
7 220 10 570 9 463 -1 533 -3 571 -17z m-2078 -1340 c75 -38 143 -112 171
-184 22 -58 22 -60 23 -638 0 -522 -2 -585 -17 -630 -38 -110 -141 -202 -252
-225 -35 -7 -226 -10 -576 -8 l-524 3 -55 26 c-102 48 -168 124 -194 226 -9
36 -12 197 -12 623 l1 575 27 56 c29 64 87 132 132 157 95 52 81 51 671 49
l550 -2 55 -28z m4368 -2135 c38 -21 50 -66 48 -177 -2 -109 -12 -137 -54
-159 -41 -21 -5702 -22 -5743 0 -44 22 -53 49 -55 164 -1 119 10 154 56 174
44 18 5715 16 5748 -2z"/>
</g>
</svg>
